<svg width="35" height="30" viewBox="0 0 35 30" fill="none" xmlns="http://www.w3.org/2000/svg">
<path d="M25.7919 11.0549L18.8061 0.698186C18.6605 0.48328 18.4639 0.307191 18.2336 0.185437C18.0033 0.0636826 17.7463 0 17.4853 0C17.2244 0 16.9674 0.0636826 16.7371 0.185437C16.5067 0.307191 16.3101 0.48328 16.1646 0.698186L9.17879 11.0549H1.58833C0.538073 11.0549 -0.225747 12.0495 0.0606855 13.0599L4.45265 28.8475C4.64361 29.5264 5.26421 30 5.98029 30H29.054C29.7701 30 30.4066 29.5264 30.5817 28.8317L34.9418 13.0441C35.0075 12.8107 35.0177 12.5654 34.9717 12.3274C34.9257 12.0894 34.8248 11.8652 34.6768 11.6725C34.5287 11.4797 34.3377 11.3236 34.1186 11.2165C33.8995 11.1093 33.6584 11.054 33.4142 11.0549H25.7919ZM17.4853 4.40828L21.9569 11.0549H13.0138L17.4853 4.40828ZM17.5012 23.685C15.7508 23.685 14.3187 22.2641 14.3187 20.5274C14.3187 18.7908 15.7508 17.3699 17.5012 17.3699C19.2517 17.3699 20.6838 18.7908 20.6838 20.5274C20.6838 22.2641 19.2517 23.685 17.5012 23.685Z" fill="white"/>
</svg>
