<svg width="237" height="84" viewBox="0 0 237 84" fill="none" xmlns="http://www.w3.org/2000/svg">
<path d="M79.525 21V2.5625H83.35V21H79.525ZM86.5473 21V7.725H90.4223V9.7625C90.9306 9.04583 91.5806 8.4875 92.3723 8.0875C93.1639 7.67917 94.0306 7.475 94.9723 7.475C96.6056 7.475 97.8098 7.95417 98.5848 8.9125C99.3681 9.87083 99.7598 11.1292 99.7598 12.6875V21H95.8973V13.8C95.8973 13.25 95.8264 12.75 95.6848 12.3C95.5431 11.8417 95.2848 11.475 94.9098 11.2C94.5431 10.925 94.0181 10.7875 93.3348 10.7875C92.4348 10.7875 91.7223 11.0917 91.1973 11.7C90.6806 12.3 90.4223 13.0833 90.4223 14.05V21H86.5473ZM108.361 21.3C107.252 21.3 106.231 21.0375 105.298 20.5125C104.365 19.9792 103.615 19.1917 103.048 18.15C102.481 17.1083 102.198 15.825 102.198 14.3C102.198 12.8417 102.486 11.6042 103.061 10.5875C103.644 9.57083 104.402 8.8 105.336 8.275C106.277 7.74167 107.286 7.475 108.361 7.475C109.152 7.475 109.898 7.63333 110.598 7.95C111.306 8.25833 111.923 8.69167 112.448 9.25V1.4625H116.336V21H112.448V19.45C111.931 20.0167 111.319 20.4667 110.611 20.8C109.911 21.1333 109.161 21.3 108.361 21.3ZM109.348 17.9375C109.881 17.9375 110.381 17.8125 110.848 17.5625C111.323 17.3042 111.706 16.9417 111.998 16.475C112.298 16.0083 112.448 15.4583 112.448 14.825V13.7375C112.448 13.1125 112.298 12.575 111.998 12.125C111.698 11.675 111.311 11.3292 110.836 11.0875C110.361 10.8375 109.865 10.7125 109.348 10.7125C108.498 10.7125 107.756 11 107.123 11.575C106.498 12.1417 106.186 13.05 106.186 14.3C106.186 15.55 106.498 16.4708 107.123 17.0625C107.756 17.6458 108.498 17.9375 109.348 17.9375ZM126.09 21.2875C124.657 21.2875 123.394 20.9917 122.303 20.4C121.211 19.8083 120.357 18.9958 119.74 17.9625C119.132 16.9208 118.828 15.7208 118.828 14.3625C118.828 13.0125 119.132 11.8208 119.74 10.7875C120.357 9.74583 121.211 8.9375 122.303 8.3625C123.394 7.77917 124.657 7.4875 126.09 7.4875C127.523 7.4875 128.786 7.77917 129.878 8.3625C130.969 8.9375 131.819 9.74583 132.428 10.7875C133.044 11.8208 133.353 13.0125 133.353 14.3625C133.353 15.7208 133.044 16.9208 132.428 17.9625C131.819 18.9958 130.969 19.8083 129.878 20.4C128.786 20.9917 127.523 21.2875 126.09 21.2875ZM126.09 18.2125C127.098 18.2125 127.907 17.8625 128.515 17.1625C129.123 16.4625 129.428 15.5292 129.428 14.3625C129.428 13.1958 129.123 12.2708 128.515 11.5875C127.907 10.9042 127.098 10.5625 126.09 10.5625C125.082 10.5625 124.273 10.9042 123.665 11.5875C123.057 12.2708 122.753 13.1958 122.753 14.3625C122.753 15.5292 123.057 16.4625 123.665 17.1625C124.273 17.8625 125.082 18.2125 126.09 18.2125ZM135.923 21V7.725H139.798V9.7625C140.306 9.04583 140.956 8.4875 141.748 8.0875C142.54 7.67917 143.406 7.475 144.348 7.475C145.981 7.475 147.186 7.95417 147.961 8.9125C148.744 9.87083 149.136 11.1292 149.136 12.6875V21H145.273V13.8C145.273 13.25 145.202 12.75 145.061 12.3C144.919 11.8417 144.661 11.475 144.286 11.2C143.919 10.925 143.394 10.7875 142.711 10.7875C141.811 10.7875 141.098 11.0917 140.573 11.7C140.056 12.3 139.798 13.0833 139.798 14.05V21H135.923ZM165.861 16.8125C165.795 17.5625 165.478 18.2833 164.911 18.975C164.353 19.6583 163.561 20.2167 162.536 20.65C161.52 21.0833 160.29 21.3 158.849 21.3C157.382 21.3 156.103 21.0083 155.011 20.425C153.92 19.8333 153.074 19.0208 152.474 17.9875C151.874 16.9458 151.574 15.7458 151.574 14.3875C151.574 13.0125 151.878 11.8083 152.486 10.775C153.103 9.73333 153.957 8.925 155.049 8.35C156.149 7.76667 157.42 7.475 158.861 7.475C160.336 7.475 161.611 7.77083 162.686 8.3625C163.761 8.94583 164.59 9.76667 165.174 10.825C165.757 11.875 166.049 13.1 166.049 14.5C166.049 14.9333 166.032 15.275 165.999 15.525H155.499C155.674 16.425 156.053 17.125 156.636 17.625C157.22 18.1167 158.011 18.3625 159.011 18.3625C160.053 18.3625 160.803 18.1958 161.261 17.8625C161.728 17.5208 161.986 17.1708 162.036 16.8125H165.861ZM158.911 10.375C158.02 10.375 157.282 10.6 156.699 11.05C156.124 11.5 155.736 12.1375 155.536 12.9625H162.086C162.028 12.3042 161.74 11.7083 161.224 11.175C160.715 10.6417 159.945 10.375 158.911 10.375ZM174.146 21.3C173.096 21.3 172.1 21.1417 171.158 20.825C170.225 20.5 169.466 20.0208 168.883 19.3875C168.3 18.7458 168.008 17.9458 168.008 16.9875V16.7625H171.858V16.9375C171.858 17.4208 172.071 17.775 172.496 18C172.921 18.225 173.504 18.3375 174.246 18.3375C174.812 18.3375 175.341 18.2458 175.833 18.0625C176.325 17.8792 176.571 17.575 176.571 17.15C176.571 16.7083 176.325 16.3958 175.833 16.2125C175.35 16.0292 174.571 15.8458 173.496 15.6625C172.879 15.5625 172.258 15.4208 171.633 15.2375C171.016 15.0542 170.446 14.8125 169.921 14.5125C169.396 14.2042 168.975 13.8167 168.658 13.35C168.341 12.875 168.183 12.3 168.183 11.625C168.183 10.725 168.454 9.96667 168.996 9.35C169.546 8.73333 170.275 8.26667 171.183 7.95C172.091 7.63333 173.091 7.475 174.183 7.475C175.216 7.475 176.183 7.65 177.083 8C177.991 8.34167 178.725 8.8375 179.283 9.4875C179.841 10.1292 180.121 10.9042 180.121 11.8125V11.9875H176.308V11.8375C176.308 11.3375 176.079 10.975 175.621 10.75C175.171 10.5167 174.687 10.4 174.171 10.4C173.854 10.4 173.525 10.4375 173.183 10.5125C172.85 10.5792 172.566 10.6958 172.333 10.8625C172.1 11.0208 171.983 11.2458 171.983 11.5375C171.983 11.9625 172.258 12.275 172.808 12.475C173.366 12.675 174.087 12.8458 174.971 12.9875C175.529 13.0792 176.116 13.2083 176.733 13.375C177.358 13.5333 177.941 13.7625 178.483 14.0625C179.025 14.3542 179.466 14.7417 179.808 15.225C180.15 15.7083 180.321 16.3125 180.321 17.0375C180.321 17.7958 180.146 18.4458 179.796 18.9875C179.446 19.5292 178.971 19.9708 178.371 20.3125C177.779 20.6458 177.116 20.8917 176.383 21.05C175.65 21.2167 174.904 21.3 174.146 21.3ZM184.644 5.5625C184.044 5.5625 183.519 5.40417 183.069 5.0875C182.628 4.77083 182.407 4.325 182.407 3.75C182.407 3.16667 182.628 2.71667 183.069 2.4C183.519 2.08333 184.044 1.925 184.644 1.925C185.244 1.925 185.769 2.08333 186.219 2.4C186.669 2.71667 186.894 3.16667 186.894 3.75C186.894 4.33333 186.669 4.78333 186.219 5.1C185.769 5.40833 185.244 5.5625 184.644 5.5625ZM182.732 21V7.725H186.569V21H182.732ZM194.075 21.275C192.616 21.275 191.421 20.9333 190.487 20.25C189.554 19.5667 189.087 18.6 189.087 17.35C189.087 16.4083 189.346 15.6417 189.862 15.05C190.379 14.4583 191.062 14.0083 191.912 13.7C192.771 13.3833 193.7 13.175 194.7 13.075C196.15 12.9417 197.154 12.8167 197.712 12.7C198.271 12.575 198.55 12.3667 198.55 12.075V12.05C198.55 11.5583 198.312 11.1708 197.837 10.8875C197.371 10.6042 196.716 10.4625 195.875 10.4625C194.041 10.4625 193.125 11.1125 193.125 12.4125H189.312C189.312 11.3542 189.6 10.4583 190.175 9.725C190.758 8.98333 191.546 8.425 192.537 8.05C193.529 7.66667 194.65 7.475 195.9 7.475C197.066 7.475 198.146 7.65417 199.137 8.0125C200.129 8.3625 200.925 8.89583 201.525 9.6125C202.133 10.3208 202.437 11.2167 202.437 12.3V18.0375C202.437 18.3792 202.446 18.7083 202.462 19.025C202.487 19.3417 202.537 19.625 202.612 19.875C202.696 20.1667 202.8 20.4083 202.925 20.6C203.05 20.7917 203.154 20.925 203.237 21H199.425C199.366 20.9333 199.275 20.8125 199.15 20.6375C199.033 20.4542 198.933 20.2417 198.85 20C198.8 19.8583 198.758 19.7208 198.725 19.5875C198.225 20.1208 197.566 20.5375 196.75 20.8375C195.933 21.1292 195.041 21.275 194.075 21.275ZM195.112 18.375C195.712 18.375 196.279 18.2667 196.812 18.05C197.346 17.825 197.779 17.475 198.112 17C198.446 16.525 198.612 15.9042 198.612 15.1375V15.025C198.137 15.15 197.633 15.2542 197.1 15.3375C196.566 15.4125 196.037 15.4792 195.512 15.5375C194.662 15.6208 194.025 15.7667 193.6 15.975C193.183 16.175 192.975 16.5167 192.975 17C192.975 17.9167 193.687 18.375 195.112 18.375ZM205.423 21V7.725H209.298V9.7625C209.806 9.04583 210.456 8.4875 211.248 8.0875C212.04 7.67917 212.906 7.475 213.848 7.475C215.481 7.475 216.686 7.95417 217.461 8.9125C218.244 9.87083 218.636 11.1292 218.636 12.6875V21H214.773V13.8C214.773 13.25 214.702 12.75 214.561 12.3C214.419 11.8417 214.161 11.475 213.786 11.2C213.419 10.925 212.894 10.7875 212.211 10.7875C211.311 10.7875 210.598 11.0917 210.073 11.7C209.556 12.3 209.298 13.0833 209.298 14.05V21H205.423ZM85.775 49.3C84.4417 49.3 83.2667 49.0875 82.25 48.6625C81.2417 48.2375 80.45 47.6042 79.875 46.7625C79.3083 45.9125 79.025 44.8583 79.025 43.6V42.8625H82.9125V43.525C82.9125 45.3 83.8708 46.1875 85.7875 46.1875C86.7458 46.1875 87.4833 46.0333 88 45.725C88.5167 45.4167 88.775 44.9167 88.775 44.225C88.775 43.7333 88.5833 43.3 88.2 42.925C87.8167 42.55 87.2875 42.2167 86.6125 41.925C85.9458 41.625 85.1917 41.3458 84.35 41.0875C83.425 40.7958 82.5667 40.4125 81.775 39.9375C80.9833 39.4625 80.3458 38.8583 79.8625 38.125C79.3875 37.3917 79.15 36.4875 79.15 35.4125C79.15 34.3292 79.4375 33.4083 80.0125 32.65C80.5875 31.8833 81.3708 31.3 82.3625 30.9C83.3542 30.4917 84.475 30.2875 85.725 30.2875C87.0333 30.2875 88.1875 30.4917 89.1875 30.9C90.1958 31.3 90.9833 31.9042 91.55 32.7125C92.125 33.5125 92.4125 34.5125 92.4125 35.7125V36.4625H88.5375V35.8875C88.5375 35.0792 88.3125 34.4583 87.8625 34.025C87.4208 33.5917 86.725 33.375 85.775 33.375C84.8583 33.375 84.1458 33.5417 83.6375 33.875C83.1375 34.2083 82.8875 34.7208 82.8875 35.4125C82.8875 35.9125 83.0667 36.3375 83.425 36.6875C83.7917 37.0375 84.2917 37.35 84.925 37.625C85.5583 37.9 86.2792 38.175 87.0875 38.45C88.1875 38.8333 89.1458 39.2583 89.9625 39.725C90.7875 40.1833 91.425 40.7625 91.875 41.4625C92.325 42.1542 92.55 43.0375 92.55 44.1125C92.55 45.2208 92.2625 46.1625 91.6875 46.9375C91.1208 47.7042 90.3292 48.2917 89.3125 48.7C88.2958 49.1 87.1167 49.3 85.775 49.3ZM101.926 49.3C100.468 49.3 99.1887 49.0083 98.0887 48.425C96.997 47.8333 96.147 47.0167 95.5387 45.975C94.9303 44.925 94.6262 43.7083 94.6262 42.325C94.6262 40.9417 94.9303 39.7375 95.5387 38.7125C96.147 37.6875 96.997 36.8917 98.0887 36.325C99.1887 35.7583 100.468 35.475 101.926 35.475C103.018 35.475 103.98 35.6375 104.814 35.9625C105.655 36.2792 106.36 36.7 106.926 37.225C107.501 37.7417 107.935 38.3167 108.226 38.95C108.518 39.575 108.664 40.1958 108.664 40.8125V40.9125H104.826C104.826 40.8458 104.814 40.75 104.789 40.625C104.689 40.1 104.405 39.6292 103.939 39.2125C103.48 38.7958 102.801 38.5875 101.901 38.5875C100.943 38.5875 100.143 38.9083 99.5012 39.55C98.8678 40.1833 98.5512 41.1083 98.5512 42.325C98.5512 43.525 98.8678 44.4708 99.5012 45.1625C100.143 45.8458 100.943 46.1875 101.901 46.1875C102.885 46.1875 103.601 45.9667 104.051 45.525C104.501 45.075 104.76 44.5375 104.826 43.9125H108.664C108.664 44.5375 108.518 45.1667 108.226 45.8C107.943 46.4333 107.518 47.0125 106.951 47.5375C106.385 48.0625 105.68 48.4875 104.839 48.8125C104.005 49.1375 103.035 49.3 101.926 49.3ZM124.908 44.8125C124.842 45.5625 124.525 46.2833 123.958 46.975C123.4 47.6583 122.608 48.2167 121.583 48.65C120.567 49.0833 119.338 49.3 117.896 49.3C116.429 49.3 115.15 49.0083 114.058 48.425C112.967 47.8333 112.121 47.0208 111.521 45.9875C110.921 44.9458 110.621 43.7458 110.621 42.3875C110.621 41.0125 110.925 39.8083 111.533 38.775C112.15 37.7333 113.004 36.925 114.096 36.35C115.196 35.7667 116.467 35.475 117.908 35.475C119.383 35.475 120.658 35.7708 121.733 36.3625C122.808 36.9458 123.638 37.7667 124.221 38.825C124.804 39.875 125.096 41.1 125.096 42.5C125.096 42.9333 125.079 43.275 125.046 43.525H114.546C114.721 44.425 115.1 45.125 115.683 45.625C116.267 46.1167 117.058 46.3625 118.058 46.3625C119.1 46.3625 119.85 46.1958 120.308 45.8625C120.775 45.5208 121.033 45.1708 121.083 44.8125H124.908ZM117.958 38.375C117.067 38.375 116.329 38.6 115.746 39.05C115.171 39.5 114.783 40.1375 114.583 40.9625H121.133C121.075 40.3042 120.788 39.7083 120.271 39.175C119.763 38.6417 118.992 38.375 117.958 38.375ZM127.668 49V35.725H131.543V37.7625C132.051 37.0458 132.701 36.4875 133.493 36.0875C134.284 35.6792 135.151 35.475 136.093 35.475C137.726 35.475 138.93 35.9542 139.705 36.9125C140.488 37.8708 140.88 39.1292 140.88 40.6875V49H137.018V41.8C137.018 41.25 136.947 40.75 136.805 40.3C136.663 39.8417 136.405 39.475 136.03 39.2C135.663 38.925 135.138 38.7875 134.455 38.7875C133.555 38.7875 132.843 39.0917 132.318 39.7C131.801 40.3 131.543 41.0833 131.543 42.05V49H127.668ZM157.606 44.8125C157.539 45.5625 157.223 46.2833 156.656 46.975C156.098 47.6583 155.306 48.2167 154.281 48.65C153.264 49.0833 152.035 49.3 150.593 49.3C149.127 49.3 147.848 49.0083 146.756 48.425C145.664 47.8333 144.818 47.0208 144.218 45.9875C143.618 44.9458 143.318 43.7458 143.318 42.3875C143.318 41.0125 143.623 39.8083 144.231 38.775C144.848 37.7333 145.702 36.925 146.793 36.35C147.893 35.7667 149.164 35.475 150.606 35.475C152.081 35.475 153.356 35.7708 154.431 36.3625C155.506 36.9458 156.335 37.7667 156.918 38.825C157.502 39.875 157.793 41.1 157.793 42.5C157.793 42.9333 157.777 43.275 157.743 43.525H147.243C147.418 44.425 147.798 45.125 148.381 45.625C148.964 46.1167 149.756 46.3625 150.756 46.3625C151.798 46.3625 152.548 46.1958 153.006 45.8625C153.473 45.5208 153.731 45.1708 153.781 44.8125H157.606ZM150.656 38.375C149.764 38.375 149.027 38.6 148.443 39.05C147.868 39.5 147.481 40.1375 147.281 40.9625H153.831C153.773 40.3042 153.485 39.7083 152.968 39.175C152.46 38.6417 151.689 38.375 150.656 38.375ZM160.365 49V35.725H164.253V37.525C164.636 36.9 165.144 36.4042 165.778 36.0375C166.419 35.6625 167.186 35.475 168.078 35.475C168.611 35.475 169.028 35.5167 169.328 35.6C169.636 35.675 169.828 35.7333 169.903 35.775L169.265 39.25C169.19 39.2083 169.023 39.1417 168.765 39.05C168.507 38.9583 168.173 38.9125 167.765 38.9125C166.873 38.9125 166.169 39.1042 165.653 39.4875C165.144 39.8708 164.782 40.3583 164.565 40.95C164.357 41.5333 164.253 42.1292 164.253 42.7375V49H160.365ZM173.114 54.7375C172.697 54.7375 172.322 54.7208 171.989 54.6875C171.664 54.6542 171.46 54.625 171.377 54.6V51.6625C171.485 51.7125 171.672 51.75 171.939 51.775C172.214 51.8083 172.506 51.825 172.814 51.825C173.431 51.825 173.952 51.6458 174.377 51.2875C174.81 50.9292 175.127 50.45 175.327 49.85L175.552 49.175L170.977 35.725H175.014L177.664 45.75L180.227 35.725H184.214L179.652 49.6625C179.31 50.7125 178.889 51.6167 178.389 52.375C177.889 53.1417 177.222 53.725 176.389 54.125C175.556 54.5333 174.464 54.7375 173.114 54.7375ZM198.765 49.2875C197.49 49.2875 196.344 49.0958 195.327 48.7125C194.31 48.3292 193.502 47.7667 192.902 47.025C192.31 46.275 192.015 45.3583 192.015 44.275C192.015 43.1583 192.377 42.2 193.102 41.4C193.835 40.6 194.877 39.7958 196.227 38.9875C195.727 38.3458 195.265 37.6375 194.84 36.8625C194.423 36.0792 194.215 35.2583 194.215 34.4C194.215 33.6583 194.427 32.9833 194.852 32.375C195.285 31.7667 195.877 31.2833 196.627 30.925C197.377 30.5667 198.24 30.3875 199.215 30.3875C200.198 30.3875 201.052 30.5667 201.777 30.925C202.51 31.2833 203.077 31.7625 203.477 32.3625C203.877 32.9625 204.077 33.6333 204.077 34.375C204.077 35.4833 203.765 36.4417 203.14 37.25C202.523 38.0583 201.64 38.8333 200.49 39.575L203.977 43.8C204.252 43.3583 204.465 42.8667 204.615 42.325C204.773 41.7833 204.852 41.15 204.852 40.425H208.002C208.002 41.725 207.81 42.8333 207.427 43.75C207.044 44.6667 206.573 45.4625 206.015 46.1375C206.223 46.2958 206.415 46.4 206.59 46.45C206.765 46.4917 206.919 46.5125 207.052 46.5125C207.244 46.5125 207.44 46.4875 207.64 46.4375C207.84 46.3875 207.985 46.3458 208.077 46.3125V49C208.027 49.0167 207.865 49.0583 207.59 49.125C207.323 49.2 206.969 49.2375 206.527 49.2375C206.077 49.2375 205.598 49.1417 205.09 48.95C204.59 48.7583 204.148 48.4542 203.765 48.0375C203.098 48.4292 202.344 48.7375 201.502 48.9625C200.669 49.1792 199.756 49.2875 198.765 49.2875ZM197.415 34.575C197.415 35.0167 197.54 35.4833 197.79 35.975C198.048 36.4583 198.385 36.9708 198.802 37.5125C199.569 37.0125 200.127 36.5292 200.477 36.0625C200.835 35.5875 201.015 35.0958 201.015 34.5875C201.015 34.0458 200.844 33.6292 200.502 33.3375C200.16 33.0458 199.74 32.9 199.24 32.9C198.765 32.9 198.34 33.0458 197.965 33.3375C197.598 33.6208 197.415 34.0333 197.415 34.575ZM195.577 44.1C195.577 44.8167 195.894 45.4042 196.527 45.8625C197.16 46.3125 197.919 46.5375 198.802 46.5375C199.435 46.5375 200.006 46.475 200.515 46.35C201.031 46.2167 201.494 46.0333 201.902 45.8L197.965 41.0875C197.181 41.5875 196.585 42.0667 196.177 42.525C195.777 42.9833 195.577 43.5083 195.577 44.1ZM94.6125 70.2625C94.6125 71.0625 94.4625 71.875 94.1625 72.7C93.8625 73.525 93.4042 74.2875 92.7875 74.9875C92.1708 75.6792 91.3917 76.2375 90.45 76.6625C89.5083 77.0875 88.4 77.3 87.125 77.3C85.4167 77.3 83.9583 76.8958 82.75 76.0875C81.5417 75.2708 80.6167 74.15 79.975 72.725C79.3417 71.2917 79.025 69.6417 79.025 67.775C79.025 65.9167 79.3417 64.275 79.975 62.85C80.6167 61.4167 81.5417 60.3 82.75 59.5C83.9583 58.6917 85.4167 58.2875 87.125 58.2875C88.5417 58.2875 89.75 58.5458 90.75 59.0625C91.7583 59.5792 92.5625 60.25 93.1625 61.075C93.7708 61.9 94.1875 62.7708 94.4125 63.6875C94.5458 64.2458 94.6125 64.7833 94.6125 65.3H90.725C90.725 65.05 90.7042 64.8083 90.6625 64.575C90.5375 63.6667 90.1708 62.9125 89.5625 62.3125C88.9542 61.7042 88.1417 61.4 87.125 61.4C85.925 61.4 84.9333 61.9208 84.15 62.9625C83.3667 63.9958 82.975 65.6 82.975 67.775C82.975 69.9583 83.3667 71.575 84.15 72.625C84.9333 73.6667 85.925 74.1875 87.125 74.1875C87.8917 74.1875 88.5417 74.0042 89.075 73.6375C89.6083 73.2708 90.0167 72.7917 90.3 72.2C90.5833 71.6 90.725 70.9542 90.725 70.2625H94.6125ZM97.2895 77V63.725H101.177V65.525C101.56 64.9 102.069 64.4042 102.702 64.0375C103.344 63.6625 104.11 63.475 105.002 63.475C105.535 63.475 105.952 63.5167 106.252 63.6C106.56 63.675 106.752 63.7333 106.827 63.775L106.189 67.25C106.114 67.2083 105.948 67.1417 105.689 67.05C105.431 66.9583 105.098 66.9125 104.689 66.9125C103.798 66.9125 103.094 67.1042 102.577 67.4875C102.069 67.8708 101.706 68.3583 101.489 68.95C101.281 69.5333 101.177 70.1292 101.177 70.7375V77H97.2895ZM113.194 77.275C111.736 77.275 110.54 76.9333 109.607 76.25C108.674 75.5667 108.207 74.6 108.207 73.35C108.207 72.4083 108.465 71.6417 108.982 71.05C109.499 70.4583 110.182 70.0083 111.032 69.7C111.89 69.3833 112.819 69.175 113.819 69.075C115.269 68.9417 116.274 68.8167 116.832 68.7C117.39 68.575 117.669 68.3667 117.669 68.075V68.05C117.669 67.5583 117.432 67.1708 116.957 66.8875C116.49 66.6042 115.836 66.4625 114.994 66.4625C113.161 66.4625 112.244 67.1125 112.244 68.4125H108.432C108.432 67.3542 108.719 66.4583 109.294 65.725C109.878 64.9833 110.665 64.425 111.657 64.05C112.649 63.6667 113.769 63.475 115.019 63.475C116.186 63.475 117.265 63.6542 118.257 64.0125C119.249 64.3625 120.044 64.8958 120.644 65.6125C121.253 66.3208 121.557 67.2167 121.557 68.3V74.0375C121.557 74.3792 121.565 74.7083 121.582 75.025C121.607 75.3417 121.657 75.625 121.732 75.875C121.815 76.1667 121.919 76.4083 122.044 76.6C122.169 76.7917 122.274 76.925 122.357 77H118.544C118.486 76.9333 118.394 76.8125 118.269 76.6375C118.153 76.4542 118.053 76.2417 117.969 76C117.919 75.8583 117.878 75.7208 117.844 75.5875C117.344 76.1208 116.686 76.5375 115.869 76.8375C115.053 77.1292 114.161 77.275 113.194 77.275ZM114.232 74.375C114.832 74.375 115.399 74.2667 115.932 74.05C116.465 73.825 116.899 73.475 117.232 73C117.565 72.525 117.732 71.9042 117.732 71.1375V71.025C117.257 71.15 116.753 71.2542 116.219 71.3375C115.686 71.4125 115.157 71.4792 114.632 71.5375C113.782 71.6208 113.144 71.7667 112.719 71.975C112.303 72.175 112.094 72.5167 112.094 73C112.094 73.9167 112.807 74.375 114.232 74.375ZM126.155 77V66.725H123.393V63.725H126.155V62.8125C126.155 61.7125 126.338 60.8042 126.705 60.0875C127.072 59.3708 127.547 58.8083 128.13 58.4C128.722 57.9917 129.359 57.7042 130.043 57.5375C130.734 57.3708 131.401 57.2875 132.043 57.2875C132.584 57.2875 132.993 57.3208 133.268 57.3875C133.543 57.4458 133.726 57.4958 133.818 57.5375V60.55C133.718 60.525 133.538 60.4917 133.28 60.45C133.03 60.4 132.759 60.375 132.468 60.375C131.501 60.375 130.851 60.6208 130.518 61.1125C130.184 61.6042 130.018 62.2292 130.018 62.9875V63.725H133.58V66.725H130.018V77H126.155ZM142.228 77.275C141.72 77.275 141.195 77.2292 140.653 77.1375C140.12 77.0542 139.624 76.8833 139.166 76.625C138.707 76.3583 138.332 75.9708 138.041 75.4625C137.757 74.9542 137.616 74.2833 137.616 73.45V66.725H134.553V63.725H135.416C136.091 63.725 136.582 63.6792 136.891 63.5875C137.207 63.4958 137.407 63.2625 137.491 62.8875C137.574 62.5042 137.616 61.8833 137.616 61.025V59.35H141.503V63.725H145.366V66.725H141.503V72.35C141.503 72.925 141.57 73.3917 141.703 73.75C141.845 74.1083 142.191 74.2875 142.741 74.2875C143.016 74.2875 143.274 74.2625 143.516 74.2125C143.766 74.1625 143.953 74.1125 144.078 74.0625V76.975C143.903 77.05 143.657 77.1167 143.341 77.175C143.024 77.2417 142.653 77.275 142.228 77.275Z" fill="white"/>
<path fill-rule="evenodd" clip-rule="evenodd" d="M44.4055 7.16217H21.4865C13.5754 7.16217 7.16217 13.5754 7.16217 21.4865V23.1647L14.0722 16.2547L26.5169 25.7712L35.2997 19.1841L47.6871 30.7973H58.7298V21.4865C58.7298 13.5754 52.3166 7.16217 44.4055 7.16217ZM7.16217 49.5476V31.2678L14.5766 23.8534L23.0363 30.3227C25.075 31.8816 27.9016 31.8948 29.9547 30.355L34.8897 26.6537L42.3764 33.6725C41.9419 34.091 41.5205 34.5085 41.1194 34.9058L41.1193 34.9058C40.8535 35.1692 40.5966 35.4236 40.3508 35.6637C37.5745 38.375 33.6579 39.5718 28.7941 41.0259C27.8057 41.3214 26.7289 41.6128 25.6118 41.915C23.4659 42.4956 21.1714 43.1164 19.07 43.884C18.5863 44.0608 18.0876 44.2379 17.5778 44.4189L17.5767 44.4193L17.5761 44.4195L17.5758 44.4196C14.2 45.6185 10.3434 46.9881 7.17482 49.5374L7.16217 49.5476ZM7.16217 59.7961V59.5939C7.16954 59.2191 7.21888 58.8756 7.31585 58.5395C7.77446 56.9501 8.93861 55.4723 10.7665 54.0017C13.1205 52.1078 15.9643 51.0881 19.4118 49.8521L19.4128 49.8517L19.4142 49.8512C19.8731 49.6866 20.3427 49.5183 20.8233 49.3435L27.0017 50.999C27.7658 51.2037 28.5513 50.7502 28.756 49.9861C28.9608 49.2219 28.5073 48.4365 27.7432 48.2317L25.9692 47.7564C26.2175 47.6892 26.4676 47.622 26.7198 47.5541L26.7272 47.5522L26.7272 47.5521C27.9016 47.2364 29.1229 46.908 30.4353 46.5156L30.6977 46.4373L37.0288 48.1337C37.793 48.3384 38.5784 47.8849 38.7832 47.1208C38.988 46.3566 38.5345 45.5712 37.7703 45.3664L35.7402 44.8224C36.9841 44.3673 38.2295 43.8479 39.4375 43.2276L47.0559 45.2689C47.82 45.4737 48.6055 45.0202 48.8102 44.256C49.015 43.4919 48.5615 42.7064 47.7973 42.5017L42.7516 41.1497C43.3064 40.7235 43.8422 40.2628 44.354 39.763C44.6646 39.4597 44.9628 39.1644 45.2534 38.8766C46.0978 38.0406 46.8785 37.2676 47.7139 36.5438L47.7331 36.5271H58.7298V61.1012L32.946 71.751L7.31503 61.1643C7.22303 60.6502 7.16988 60.2035 7.16217 59.7961ZM65.892 65.892V21.4865C65.892 9.61984 56.2721 0 44.4055 0H21.4865C9.61984 0 0 9.61984 0 21.4865V65.892L32.946 79.5001L65.892 65.892ZM48.7027 22.9191C51.076 22.9191 53 20.9952 53 18.6218C53 16.2485 51.076 14.3245 48.7027 14.3245C46.3294 14.3245 44.4054 16.2485 44.4054 18.6218C44.4054 20.9952 46.3294 22.9191 48.7027 22.9191Z" fill="white"/>
<path fill-rule="evenodd" clip-rule="evenodd" d="M48.7028 22.9191C51.0762 22.9191 53.0001 20.9951 53.0001 18.6218C53.0001 16.2484 51.0762 14.3245 48.7028 14.3245C46.3295 14.3245 44.4055 16.2484 44.4055 18.6218C44.4055 20.9951 46.3295 22.9191 48.7028 22.9191ZM14.0722 16.2549L26.5168 25.7714L35.2996 19.1843L47.687 30.7975H59.446V36.5273H47.7328L47.7139 36.5438C46.8785 37.2676 46.0979 38.0405 45.2535 38.8766C44.9628 39.1644 44.6646 39.4596 44.354 39.763C40.5184 43.5087 35.3372 45.0537 30.9132 46.3729L30.4354 46.5155C29.1229 46.9079 27.9017 47.2363 26.7274 47.5521L26.7273 47.5521L26.7272 47.5521C24.7677 48.079 22.939 48.5707 21.0361 49.2659C20.4811 49.4686 19.9406 49.6624 19.4142 49.8511L19.4128 49.8516L19.4118 49.852C15.9643 51.0881 13.1205 52.1077 10.7665 54.0016C8.93862 55.4722 7.77447 56.9501 7.31586 58.5395C7.02642 59.5426 7.16134 60.6122 7.57007 62.3829C7.92594 63.9245 6.96465 65.4628 5.42297 65.8187C3.88129 66.1746 2.34302 65.2133 1.98714 63.6716C1.57922 61.9044 1.06997 59.5182 1.81071 56.951C2.72992 53.7653 4.89439 51.372 7.17483 49.5373C10.3434 46.9881 14.2 45.6184 17.5758 44.4196L17.5761 44.4195L17.5773 44.419C18.0872 44.238 18.5861 44.0608 19.07 43.884C21.1714 43.1164 23.4659 42.4956 25.6118 41.9149C26.7289 41.6127 27.8058 41.3214 28.7941 41.0259C33.6579 39.5717 37.5745 38.3749 40.3508 35.6637C40.5965 35.4237 40.8533 35.1694 41.119 34.9062L41.1193 34.9058L41.1194 34.9057C41.5205 34.5084 41.9419 34.091 42.3762 33.6726L34.8897 26.6539L29.9547 30.3552C27.9015 31.895 25.0749 31.8818 23.0363 30.3229L14.5765 23.8536L6.32306 32.1071L2.27152 28.0555L14.0722 16.2549Z" fill="white"/>
</svg>
