<svg width="184" height="65" viewBox="0 0 184 65" fill="none" xmlns="http://www.w3.org/2000/svg">
<path d="M61.537 16V1.73289H64.4968V16H61.537ZM66.9709 16V5.72768H69.9694V7.30432C70.3628 6.74975 70.8657 6.31771 71.4783 6.00818C72.0909 5.69221 72.7616 5.53423 73.4902 5.53423C74.7541 5.53423 75.6859 5.90501 76.2856 6.64658C76.8918 7.38814 77.1948 8.36185 77.1948 9.56771V16H74.206V10.4286C74.206 10.003 74.1512 9.61607 74.0416 9.26786C73.932 8.91319 73.732 8.62946 73.4419 8.41667C73.1581 8.20387 72.7519 8.09747 72.2231 8.09747C71.5267 8.09747 70.9754 8.33284 70.5691 8.80357C70.1693 9.26786 69.9694 9.87401 69.9694 10.622V16H66.9709ZM83.8502 16.2321C82.9926 16.2321 82.2026 16.029 81.4804 15.6228C80.7582 15.2101 80.1778 14.6007 79.7393 13.7946C79.3009 12.9886 79.0816 11.9955 79.0816 10.8155C79.0816 9.687 79.3041 8.72941 79.749 7.94271C80.2004 7.156 80.7872 6.55952 81.5094 6.15327C82.2381 5.74058 83.0184 5.53423 83.8502 5.53423C84.4628 5.53423 85.0399 5.65675 85.5816 5.90179C86.1297 6.14038 86.6069 6.47569 87.0132 6.90774V0.881696H90.0213V16H87.0132V14.8006C86.6134 15.2391 86.1394 15.5873 85.5913 15.8452C85.0496 16.1032 84.4693 16.2321 83.8502 16.2321ZM84.6144 13.6302C85.027 13.6302 85.414 13.5335 85.7751 13.34C86.1426 13.1401 86.4393 12.8596 86.6649 12.4985C86.8971 12.1374 87.0132 11.7118 87.0132 11.2217V10.3802C87.0132 9.89658 86.8971 9.48065 86.6649 9.13244C86.4328 8.78423 86.133 8.51662 85.7654 8.32961C85.3978 8.13616 85.0142 8.03943 84.6144 8.03943C83.9566 8.03943 83.3827 8.2619 82.8926 8.70685C82.409 9.14534 82.1672 9.84821 82.1672 10.8155C82.1672 11.7827 82.409 12.4953 82.8926 12.9531C83.3827 13.4045 83.9566 13.6302 84.6144 13.6302ZM97.5695 16.2225C96.4603 16.2225 95.4834 15.9936 94.6387 15.5357C93.7939 15.0779 93.133 14.4492 92.6558 13.6496C92.185 12.8435 91.9497 11.9149 91.9497 10.8638C91.9497 9.8192 92.185 8.89707 92.6558 8.09747C93.133 7.29142 93.7939 6.66592 94.6387 6.22098C95.4834 5.76959 96.4603 5.5439 97.5695 5.5439C98.6786 5.5439 99.6555 5.76959 100.5 6.22098C101.345 6.66592 102.003 7.29142 102.473 8.09747C102.951 8.89707 103.189 9.8192 103.189 10.8638C103.189 11.9149 102.951 12.8435 102.473 13.6496C102.003 14.4492 101.345 15.0779 100.5 15.5357C99.6555 15.9936 98.6786 16.2225 97.5695 16.2225ZM97.5695 13.843C98.3497 13.843 98.9752 13.5722 99.446 13.0305C99.9167 12.4888 100.152 11.7666 100.152 10.8638C100.152 9.96106 99.9167 9.24529 99.446 8.71652C98.9752 8.18775 98.3497 7.92336 97.5695 7.92336C96.7892 7.92336 96.1637 8.18775 95.693 8.71652C95.2222 9.24529 94.9869 9.96106 94.9869 10.8638C94.9869 11.7666 95.2222 12.4888 95.693 13.0305C96.1637 13.5722 96.7892 13.843 97.5695 13.843ZM105.178 16V5.72768H108.177V7.30432C108.57 6.74975 109.073 6.31771 109.686 6.00818C110.298 5.69221 110.969 5.53423 111.698 5.53423C112.962 5.53423 113.893 5.90501 114.493 6.64658C115.099 7.38814 115.402 8.36185 115.402 9.56771V16H112.413V10.4286C112.413 10.003 112.359 9.61607 112.249 9.26786C112.139 8.91319 111.939 8.62946 111.649 8.41667C111.366 8.20387 110.959 8.09747 110.431 8.09747C109.734 8.09747 109.183 8.33284 108.777 8.80357C108.377 9.26786 108.177 9.87401 108.177 10.622V16H105.178ZM128.345 12.7597C128.293 13.34 128.048 13.8978 127.61 14.433C127.178 14.9618 126.565 15.3938 125.772 15.7292C124.985 16.0645 124.034 16.2321 122.919 16.2321C121.784 16.2321 120.794 16.0064 119.949 15.5551C119.104 15.0972 118.45 14.4685 117.985 13.6689C117.521 12.8628 117.289 11.9343 117.289 10.8832C117.289 9.8192 117.524 8.8874 117.995 8.0878C118.472 7.28175 119.133 6.65625 119.978 6.21131C120.829 5.75992 121.813 5.53423 122.928 5.53423C124.07 5.53423 125.056 5.76314 125.888 6.22098C126.72 6.67237 127.361 7.30754 127.813 8.12649C128.264 8.93899 128.49 9.8869 128.49 10.9702C128.49 11.3056 128.477 11.5699 128.451 11.7634H120.326C120.462 12.4598 120.755 13.0015 121.206 13.3884C121.658 13.7688 122.27 13.9591 123.044 13.9591C123.85 13.9591 124.431 13.8301 124.785 13.5722C125.146 13.3078 125.346 13.037 125.385 12.7597H128.345ZM122.967 7.77827C122.277 7.77827 121.706 7.95238 121.255 8.30059C120.81 8.64881 120.51 9.14211 120.355 9.78051H125.424C125.379 9.27108 125.156 8.81002 124.756 8.39732C124.363 7.98462 123.766 7.77827 122.967 7.77827ZM134.755 16.2321C133.943 16.2321 133.172 16.1096 132.443 15.8646C131.721 15.6131 131.134 15.2423 130.683 14.7522C130.232 14.2557 130.006 13.6367 130.006 12.8951V12.721H132.985V12.8564C132.985 13.2304 133.15 13.5045 133.478 13.6786C133.807 13.8527 134.259 13.9397 134.833 13.9397C135.271 13.9397 135.681 13.8688 136.061 13.7269C136.441 13.5851 136.632 13.3497 136.632 13.0208C136.632 12.6791 136.441 12.4373 136.061 12.2954C135.687 12.1535 135.084 12.0117 134.252 11.8698C133.775 11.7924 133.295 11.6828 132.811 11.5409C132.334 11.3991 131.892 11.2121 131.486 10.9799C131.08 10.7413 130.754 10.4415 130.509 10.0804C130.264 9.7128 130.141 9.26786 130.141 8.74554C130.141 8.04911 130.351 7.4623 130.77 6.98512C131.196 6.50794 131.76 6.14683 132.463 5.90179C133.166 5.65675 133.94 5.53423 134.784 5.53423C135.584 5.53423 136.332 5.66964 137.028 5.94048C137.731 6.20486 138.299 6.58854 138.731 7.09152C139.163 7.58805 139.379 8.18775 139.379 8.89062V9.02604H136.429V8.90997C136.429 8.52307 136.251 8.24256 135.897 8.06845C135.548 7.8879 135.174 7.79762 134.775 7.79762C134.53 7.79762 134.275 7.82664 134.01 7.88467C133.753 7.93626 133.533 8.02654 133.353 8.15551C133.172 8.27803 133.082 8.45213 133.082 8.67783C133.082 9.0067 133.295 9.24851 133.72 9.40327C134.152 9.55804 134.71 9.69023 135.394 9.79985C135.826 9.87078 136.28 9.97073 136.757 10.0997C137.241 10.2222 137.692 10.3996 138.112 10.6317C138.531 10.8574 138.873 11.1572 139.137 11.5312C139.401 11.9053 139.534 12.3728 139.534 12.9338C139.534 13.5206 139.398 14.0236 139.127 14.4427C138.856 14.8619 138.489 15.2036 138.025 15.468C137.567 15.7259 137.054 15.9162 136.487 16.0387C135.919 16.1677 135.342 16.2321 134.755 16.2321ZM142.879 4.05432C142.415 4.05432 142.009 3.9318 141.661 3.68676C141.319 3.44172 141.148 3.09673 141.148 2.65178C141.148 2.2004 141.319 1.85218 141.661 1.60714C142.009 1.3621 142.415 1.23958 142.879 1.23958C143.344 1.23958 143.75 1.3621 144.098 1.60714C144.446 1.85218 144.62 2.2004 144.62 2.65178C144.62 3.10317 144.446 3.45139 144.098 3.69643C143.75 3.93502 143.344 4.05432 142.879 4.05432ZM141.399 16V5.72768H144.369V16H141.399ZM150.177 16.2128C149.048 16.2128 148.123 15.9484 147.401 15.4196C146.678 14.8909 146.317 14.1429 146.317 13.1756C146.317 12.4469 146.517 11.8537 146.917 11.3958C147.317 10.938 147.846 10.5898 148.503 10.3512C149.168 10.1062 149.887 9.94494 150.66 9.86756C151.782 9.76438 152.559 9.66766 152.991 9.57738C153.423 9.48065 153.64 9.31944 153.64 9.09375V9.0744C153.64 8.69395 153.456 8.3941 153.088 8.17485C152.727 7.9556 152.221 7.84598 151.57 7.84598C150.151 7.84598 149.442 8.34896 149.442 9.35491H146.491C146.491 8.53596 146.714 7.84276 147.159 7.2753C147.61 6.70139 148.22 6.26935 148.987 5.97917C149.754 5.68254 150.622 5.53423 151.589 5.53423C152.492 5.53423 153.327 5.67287 154.094 5.95015C154.861 6.22098 155.477 6.63368 155.942 7.18824C156.412 7.73636 156.648 8.42956 156.648 9.26786V13.7076C156.648 13.972 156.654 14.2267 156.667 14.4717C156.686 14.7168 156.725 14.936 156.783 15.1295C156.848 15.3552 156.928 15.5422 157.025 15.6905C157.122 15.8388 157.202 15.942 157.267 16H154.317C154.271 15.9484 154.201 15.8549 154.104 15.7195C154.014 15.5776 153.936 15.4132 153.872 15.2262C153.833 15.1166 153.801 15.0102 153.775 14.907C153.388 15.3197 152.879 15.6421 152.247 15.8743C151.615 16.1 150.925 16.2128 150.177 16.2128ZM150.98 13.9687C151.444 13.9687 151.882 13.8849 152.295 13.7173C152.708 13.5432 153.043 13.2723 153.301 12.9048C153.559 12.5372 153.688 12.0568 153.688 11.4635V11.3765C153.32 11.4732 152.93 11.5538 152.517 11.6183C152.105 11.6763 151.695 11.7279 151.289 11.7731C150.631 11.8375 150.138 11.9504 149.809 12.1116C149.487 12.2664 149.326 12.5308 149.326 12.9048C149.326 13.6141 149.877 13.9687 150.98 13.9687ZM158.958 16V5.72768H161.957V7.30432C162.35 6.74975 162.853 6.31771 163.466 6.00818C164.078 5.69221 164.749 5.53423 165.477 5.53423C166.741 5.53423 167.673 5.90501 168.273 6.64658C168.879 7.38814 169.182 8.36185 169.182 9.56771V16H166.193V10.4286C166.193 10.003 166.138 9.61607 166.029 9.26786C165.919 8.91319 165.719 8.62946 165.429 8.41667C165.145 8.20387 164.739 8.09747 164.21 8.09747C163.514 8.09747 162.963 8.33284 162.556 8.80357C162.157 9.26786 161.957 9.87401 161.957 10.622V16H158.958ZM66.3733 38.2321C65.3416 38.2321 64.4323 38.0677 63.6456 37.7388C62.8654 37.41 62.2528 36.9199 61.8078 36.2686C61.3693 35.6109 61.1501 34.7951 61.1501 33.8214V33.2507H64.1583V33.7634C64.1583 35.1369 64.8998 35.8237 66.383 35.8237C67.1245 35.8237 67.6952 35.7044 68.095 35.4658C68.4948 35.2272 68.6947 34.8403 68.6947 34.3051C68.6947 33.9246 68.5464 33.5893 68.2498 33.2991C67.9532 33.0089 67.5437 32.751 67.0214 32.5253C66.5055 32.2932 65.9219 32.0771 65.2706 31.8772C64.5549 31.6515 63.8907 31.3549 63.2781 30.9874C62.6655 30.6198 62.1722 30.1523 61.7982 29.5848C61.4306 29.0174 61.2468 28.3177 61.2468 27.4859C61.2468 26.6476 61.4693 25.935 61.9142 25.3482C62.3592 24.755 62.9653 24.3036 63.7327 23.994C64.5 23.6781 65.3674 23.5201 66.3346 23.5201C67.347 23.5201 68.2401 23.6781 69.0139 23.994C69.7942 24.3036 70.4036 24.7711 70.8421 25.3966C71.287 26.0156 71.5095 26.7894 71.5095 27.718V28.2984H68.511V27.8534C68.511 27.2279 68.3368 26.7475 67.9886 26.4122C67.6469 26.0769 67.1084 25.9092 66.3733 25.9092C65.664 25.9092 65.1126 26.0382 64.7193 26.2961C64.3324 26.5541 64.1389 26.9506 64.1389 27.4859C64.1389 27.8728 64.2776 28.2016 64.5549 28.4725C64.8386 28.7433 65.2255 28.9851 65.7156 29.1979C66.2056 29.4107 66.7634 29.6235 67.3889 29.8363C68.2401 30.1329 68.9817 30.4618 69.6136 30.8229C70.252 31.1776 70.7453 31.6257 71.0935 32.1674C71.4418 32.7026 71.6159 33.3862 71.6159 34.218C71.6159 35.0756 71.3934 35.8043 70.9485 36.404C70.51 36.9973 69.8974 37.4519 69.1107 37.7679C68.3239 38.0774 67.4115 38.2321 66.3733 38.2321ZM78.8712 38.2321C77.7428 38.2321 76.7529 38.0064 75.9017 37.5551C75.057 37.0972 74.3993 36.4653 73.9285 35.6592C73.4578 34.8467 73.2224 33.9053 73.2224 32.8348C73.2224 31.7644 73.4578 30.8326 73.9285 30.0394C74.3993 29.2463 75.057 28.6305 75.9017 28.192C76.7529 27.7535 77.7428 27.5342 78.8712 27.5342C79.716 27.5342 80.4608 27.66 81.1056 27.9115C81.7569 28.1565 82.3018 28.4821 82.7403 28.8884C83.1852 29.2882 83.5205 29.7331 83.7462 30.2232C83.9719 30.7068 84.0848 31.1873 84.0848 31.6644V31.7418H81.1153C81.1153 31.6902 81.1056 31.6161 81.0863 31.5193C81.0089 31.1131 80.7896 30.7488 80.4285 30.4263C80.0739 30.1039 79.5483 29.9427 78.8519 29.9427C78.1103 29.9427 77.4913 30.191 76.9947 30.6875C76.5047 31.1776 76.2596 31.8934 76.2596 32.8348C76.2596 33.7634 76.5047 34.4953 76.9947 35.0305C77.4913 35.5593 78.1103 35.8237 78.8519 35.8237C79.6128 35.8237 80.1674 35.6528 80.5156 35.311C80.8638 34.9628 81.0637 34.5469 81.1153 34.0632H84.0848C84.0848 34.5469 83.9719 35.0337 83.7462 35.5238C83.527 36.0139 83.1981 36.4621 82.7596 36.8683C82.3211 37.2746 81.7762 37.6034 81.125 37.8549C80.4801 38.1064 79.7289 38.2321 78.8712 38.2321ZM96.6551 34.7597C96.6035 35.34 96.3585 35.8978 95.92 36.433C95.4879 36.9618 94.8753 37.3938 94.0822 37.7292C93.2955 38.0645 92.3443 38.2321 91.2288 38.2321C90.0938 38.2321 89.104 38.0064 88.2593 37.5551C87.4145 37.0972 86.76 36.4685 86.2957 35.6689C85.8314 34.8628 85.5993 33.9343 85.5993 32.8832C85.5993 31.8192 85.8347 30.8874 86.3054 30.0878C86.7826 29.2817 87.4435 28.6562 88.2883 28.2113C89.1395 27.7599 90.1229 27.5342 91.2384 27.5342C92.3798 27.5342 93.3664 27.7631 94.1983 28.221C95.0301 28.6724 95.6717 29.3075 96.1231 30.1265C96.5745 30.939 96.8002 31.8869 96.8002 32.9702C96.8002 33.3056 96.7873 33.5699 96.7615 33.7634H88.6365C88.7719 34.4598 89.0653 35.0015 89.5167 35.3884C89.9681 35.7688 90.5807 35.9591 91.3545 35.9591C92.1606 35.9591 92.7409 35.8301 93.0956 35.5722C93.4567 35.3078 93.6566 35.037 93.6953 34.7597H96.6551ZM91.2771 29.7783C90.5871 29.7783 90.0165 29.9524 89.5651 30.3006C89.1201 30.6488 88.8203 31.1421 88.6655 31.7805H93.734C93.6888 31.2711 93.4664 30.81 93.0666 30.3973C92.6732 29.9846 92.0767 29.7783 91.2771 29.7783ZM98.7902 38V27.7277H101.789V29.3043C102.182 28.7498 102.685 28.3177 103.298 28.0082C103.91 27.6922 104.581 27.5342 105.31 27.5342C106.573 27.5342 107.505 27.905 108.105 28.6466C108.711 29.3881 109.014 30.3619 109.014 31.5677V38H106.025V32.4286C106.025 32.003 105.97 31.6161 105.861 31.2679C105.751 30.9132 105.551 30.6295 105.261 30.4167C104.977 30.2039 104.571 30.0975 104.042 30.0975C103.346 30.0975 102.795 30.3328 102.388 30.8036C101.989 31.2679 101.789 31.874 101.789 32.622V38H98.7902ZM121.957 34.7597C121.905 35.34 121.66 35.8978 121.222 36.433C120.79 36.9618 120.177 37.3938 119.384 37.7292C118.597 38.0645 117.646 38.2321 116.53 38.2321C115.395 38.2321 114.406 38.0064 113.561 37.5551C112.716 37.0972 112.062 36.4685 111.597 35.6689C111.133 34.8628 110.901 33.9343 110.901 32.8832C110.901 31.8192 111.136 30.8874 111.607 30.0878C112.084 29.2817 112.745 28.6562 113.59 28.2113C114.441 27.7599 115.424 27.5342 116.54 27.5342C117.681 27.5342 118.668 27.7631 119.5 28.221C120.332 28.6724 120.973 29.3075 121.425 30.1265C121.876 30.939 122.102 31.8869 122.102 32.9702C122.102 33.3056 122.089 33.5699 122.063 33.7634H113.938C114.074 34.4598 114.367 35.0015 114.818 35.3884C115.27 35.7688 115.882 35.9591 116.656 35.9591C117.462 35.9591 118.043 35.8301 118.397 35.5722C118.758 35.3078 118.958 35.037 118.997 34.7597H121.957ZM116.579 29.7783C115.889 29.7783 115.318 29.9524 114.867 30.3006C114.422 30.6488 114.122 31.1421 113.967 31.7805H119.036C118.99 31.2711 118.768 30.81 118.368 30.3973C117.975 29.9846 117.378 29.7783 116.579 29.7783ZM124.092 38V27.7277H127.1V29.1205C127.397 28.6369 127.79 28.2532 128.28 27.9695C128.777 27.6793 129.37 27.5342 130.06 27.5342C130.472 27.5342 130.795 27.5665 131.027 27.631C131.266 27.689 131.414 27.7341 131.472 27.7664L130.979 30.4554C130.921 30.4231 130.792 30.3715 130.592 30.3006C130.392 30.2297 130.134 30.1942 129.818 30.1942C129.128 30.1942 128.583 30.3425 128.183 30.6391C127.79 30.9358 127.509 31.313 127.342 31.7708C127.181 32.2222 127.1 32.6833 127.1 33.154V38H124.092ZM133.957 42.4397C133.635 42.4397 133.345 42.4268 133.087 42.401C132.835 42.3752 132.677 42.3527 132.613 42.3333V40.0603C132.696 40.099 132.842 40.128 133.048 40.1473C133.261 40.1731 133.486 40.186 133.725 40.186C134.202 40.186 134.605 40.0474 134.934 39.7701C135.269 39.4928 135.514 39.122 135.669 38.6577L135.843 38.1354L132.303 27.7277H135.427L137.478 35.4851L139.461 27.7277H142.546L139.016 38.5126C138.751 39.3251 138.426 40.0248 138.039 40.6116C137.652 41.2049 137.136 41.6563 136.491 41.9658C135.846 42.2817 135.002 42.4397 133.957 42.4397ZM153.806 38.2225C152.819 38.2225 151.932 38.0742 151.146 37.7775C150.359 37.4809 149.734 37.0456 149.269 36.4717C148.811 35.8914 148.583 35.182 148.583 34.3437C148.583 33.4797 148.863 32.7381 149.424 32.119C149.992 31.5 150.798 30.8777 151.842 30.2522C151.455 29.7557 151.097 29.2076 150.769 28.6079C150.446 28.0017 150.285 27.3666 150.285 26.7024C150.285 26.1285 150.449 25.6062 150.778 25.1354C151.114 24.6647 151.571 24.2907 152.152 24.0134C152.732 23.7361 153.4 23.5975 154.154 23.5975C154.915 23.5975 155.576 23.7361 156.137 24.0134C156.704 24.2907 157.143 24.6615 157.452 25.1257C157.762 25.59 157.917 26.1091 157.917 26.683C157.917 27.5407 157.675 28.2822 157.191 28.9077C156.714 29.5332 156.03 30.1329 155.141 30.7068L157.839 33.9762C158.052 33.6344 158.216 33.254 158.333 32.8348C158.455 32.4157 158.516 31.9256 158.516 31.3646H160.954C160.954 32.3705 160.806 33.2282 160.509 33.9375C160.212 34.6468 159.848 35.2626 159.416 35.785C159.577 35.9075 159.725 35.9881 159.861 36.0268C159.996 36.059 160.116 36.0751 160.219 36.0751C160.367 36.0751 160.519 36.0558 160.673 36.0171C160.828 35.9784 160.941 35.9462 161.012 35.9204V38C160.973 38.0129 160.847 38.0451 160.635 38.0967C160.428 38.1548 160.154 38.1838 159.812 38.1838C159.464 38.1838 159.093 38.1096 158.7 37.9613C158.313 37.813 157.971 37.5776 157.675 37.2552C157.159 37.5583 156.575 37.7969 155.924 37.971C155.279 38.1386 154.573 38.2225 153.806 38.2225ZM152.761 26.8378C152.761 27.1796 152.858 27.5407 153.051 27.9211C153.251 28.2951 153.512 28.6917 153.835 29.1109C154.428 28.724 154.86 28.35 155.131 27.9888C155.408 27.6213 155.547 27.2408 155.547 26.8475C155.547 26.4283 155.415 26.1059 155.15 25.8802C154.886 25.6545 154.56 25.5417 154.173 25.5417C153.806 25.5417 153.477 25.6545 153.187 25.8802C152.903 26.0995 152.761 26.4187 152.761 26.8378ZM151.339 34.2083C151.339 34.7629 151.584 35.2175 152.074 35.5722C152.564 35.9204 153.151 36.0945 153.835 36.0945C154.325 36.0945 154.767 36.0461 155.16 35.9494C155.56 35.8462 155.918 35.7044 156.234 35.5238L153.187 31.8772C152.581 32.2641 152.12 32.6349 151.804 32.9896C151.494 33.3442 151.339 33.7505 151.339 34.2083ZM73.2118 54.7865C73.2118 55.4055 73.0958 56.0342 72.8636 56.6726C72.6315 57.311 72.2768 57.901 71.7996 58.4427C71.3225 58.9779 70.7195 59.41 69.9909 59.7388C69.2622 60.0677 68.4046 60.2321 67.4179 60.2321C66.096 60.2321 64.9675 59.9194 64.0325 59.2939C63.0975 58.662 62.3817 57.7946 61.8852 56.692C61.3951 55.5828 61.1501 54.3061 61.1501 52.8616C61.1501 51.4236 61.3951 50.1533 61.8852 49.0506C62.3817 47.9415 63.0975 47.0774 64.0325 46.4583C64.9675 45.8328 66.096 45.5201 67.4179 45.5201C68.5142 45.5201 69.4492 45.72 70.223 46.1198C71.0033 46.5196 71.6255 47.0387 72.0898 47.6771C72.5606 48.3155 72.883 48.9893 73.0571 49.6987C73.1603 50.1307 73.2118 50.5466 73.2118 50.9464H70.2037C70.2037 50.753 70.1875 50.566 70.1553 50.3854C70.0586 49.6825 69.7748 49.099 69.3041 48.6347C68.8334 48.1639 68.2047 47.9286 67.4179 47.9286C66.4894 47.9286 65.722 48.3316 65.1159 49.1376C64.5097 49.9373 64.2066 51.1786 64.2066 52.8616C64.2066 54.5511 64.5097 55.8021 65.1159 56.6146C65.722 57.4206 66.4894 57.8237 67.4179 57.8237C68.0112 57.8237 68.5142 57.6818 68.9269 57.3981C69.3396 57.1143 69.6555 56.7436 69.8748 56.2857C70.094 55.8214 70.2037 55.3217 70.2037 54.7865H73.2118ZM75.2833 60V49.7277H78.2915V51.1205C78.5881 50.6369 78.9815 50.2532 79.4715 49.9695C79.9681 49.6793 80.5613 49.5342 81.2513 49.5342C81.664 49.5342 81.9864 49.5665 82.2186 49.631C82.4572 49.689 82.6055 49.7341 82.6635 49.7664L82.1702 52.4554C82.1122 52.4231 81.9832 52.3715 81.7833 52.3006C81.5834 52.2297 81.3255 52.1942 81.0095 52.1942C80.3195 52.1942 79.7746 52.3425 79.3748 52.6391C78.9815 52.9358 78.701 53.313 78.5333 53.7708C78.3721 54.2222 78.2915 54.6833 78.2915 55.154V60H75.2833ZM87.5906 60.2128C86.4622 60.2128 85.5368 59.9484 84.8146 59.4196C84.0924 58.8909 83.7313 58.1429 83.7313 57.1756C83.7313 56.4469 83.9312 55.8537 84.331 55.3958C84.7308 54.938 85.2595 54.5898 85.9173 54.3512C86.5815 54.1062 87.3005 53.9449 88.0743 53.8676C89.1963 53.7644 89.9733 53.6677 90.4054 53.5774C90.8374 53.4807 91.0534 53.3194 91.0534 53.0937V53.0744C91.0534 52.6939 90.8697 52.3941 90.5021 52.1749C90.141 51.9556 89.6348 51.846 88.9835 51.846C87.5649 51.846 86.8555 52.349 86.8555 53.3549H83.9054C83.9054 52.536 84.1278 51.8428 84.5728 51.2753C85.0242 50.7014 85.6336 50.2693 86.4009 49.9792C87.1683 49.6825 88.0356 49.5342 89.0028 49.5342C89.9056 49.5342 90.7407 49.6729 91.5081 49.9501C92.2754 50.221 92.8912 50.6337 93.3555 51.1882C93.8263 51.7364 94.0616 52.4296 94.0616 53.2679V57.7076C94.0616 57.972 94.0681 58.2267 94.081 58.4717C94.1003 58.7168 94.139 58.936 94.197 59.1295C94.2615 59.3552 94.3421 59.5422 94.4389 59.6905C94.5356 59.8388 94.6162 59.942 94.6807 60H91.7305C91.6854 59.9484 91.6145 59.8549 91.5177 59.7195C91.4275 59.5776 91.3501 59.4132 91.2856 59.2262C91.2469 59.1166 91.2147 59.0102 91.1889 58.907C90.802 59.3197 90.2925 59.6421 89.6606 59.8743C89.0286 60.1 88.3387 60.2128 87.5906 60.2128ZM88.3935 57.9687C88.8578 57.9687 89.2963 57.8849 89.7089 57.7173C90.1216 57.5432 90.457 57.2723 90.7149 56.9048C90.9728 56.5372 91.1018 56.0568 91.1018 55.4635V55.3765C90.7342 55.4732 90.3441 55.5538 89.9314 55.6183C89.5187 55.6763 89.1092 55.7279 88.703 55.7731C88.0453 55.8375 87.552 55.9504 87.2231 56.1116C86.9007 56.2664 86.7395 56.5308 86.7395 56.9048C86.7395 57.6141 87.2908 57.9687 88.3935 57.9687ZM97.6198 60V52.0491H95.4821V49.7277H97.6198V49.0216C97.6198 48.1704 97.7617 47.4675 98.0454 46.9129C98.3291 46.3584 98.6967 45.9231 99.1481 45.6071C99.6059 45.2912 100.099 45.0687 100.628 44.9397C101.163 44.8108 101.679 44.7463 102.176 44.7463C102.595 44.7463 102.911 44.7721 103.124 44.8237C103.336 44.8688 103.478 44.9075 103.549 44.9397V47.2708C103.472 47.2515 103.333 47.2257 103.133 47.1935C102.94 47.1548 102.73 47.1354 102.504 47.1354C101.756 47.1354 101.253 47.3256 100.996 47.7061C100.738 48.0866 100.609 48.5702 100.609 49.157V49.7277H103.365V52.0491H100.609V60H97.6198ZM110.057 60.2128C109.664 60.2128 109.258 60.1773 108.839 60.1064C108.426 60.0419 108.042 59.9097 107.688 59.7098C107.333 59.5035 107.043 59.2036 106.817 58.8103C106.598 58.4169 106.488 57.8978 106.488 57.253V52.0491H104.118V49.7277H104.786C105.308 49.7277 105.689 49.6922 105.927 49.6213C106.172 49.5503 106.327 49.3698 106.391 49.0796C106.456 48.783 106.488 48.3026 106.488 47.6384V46.3423H109.496V49.7277H112.485V52.0491H109.496V56.4018C109.496 56.8467 109.548 57.2078 109.651 57.4851C109.761 57.7624 110.028 57.901 110.454 57.901C110.667 57.901 110.867 57.8817 111.054 57.843C111.247 57.8043 111.392 57.7656 111.489 57.7269V59.9807C111.354 60.0387 111.163 60.0903 110.918 60.1354C110.673 60.187 110.386 60.2128 110.057 60.2128Z" fill="#707A7E"/>
<path fill-rule="evenodd" clip-rule="evenodd" d="M34.3614 5.54216H16.6265C10.5048 5.54216 5.54216 10.5048 5.54216 16.6265V17.9249L10.8891 12.5779L20.5189 19.9419L27.3151 14.8447L36.9006 23.8311H45.4457V16.6265C45.4457 10.5048 40.4831 5.54216 34.3614 5.54216ZM5.54216 38.3403V24.1951L11.2794 18.4579L17.8257 23.4638C19.4032 24.6702 21.5905 24.6804 23.1792 23.4889L26.9979 20.6248L32.7912 26.056C32.4554 26.3795 32.1296 26.7023 31.8195 27.0094L31.8188 27.0101L31.8187 27.0103L31.8186 27.0104L31.8185 27.0104C31.6128 27.2142 31.414 27.4111 31.2238 27.5969C29.0754 29.6949 26.0448 30.621 22.2811 31.7462C21.5163 31.9749 20.6831 32.2003 19.8187 32.4342C18.1581 32.8835 16.3826 33.3639 14.7565 33.9579C14.3817 34.0948 13.9953 34.232 13.6003 34.3723C10.9881 35.3 8.0038 36.3598 5.55192 38.3325L5.54216 38.3403ZM5.54216 46.2721V46.113C5.54795 45.8235 5.58613 45.5581 5.66105 45.2984C6.01593 44.0685 6.91675 42.9249 8.33119 41.787C10.1527 40.3215 12.3533 39.5325 15.021 38.576L15.0219 38.5757C15.3773 38.4482 15.741 38.3178 16.1133 38.1824L20.894 39.4634C21.4853 39.6218 22.0931 39.2709 22.2516 38.6796C22.41 38.0883 22.0591 37.4805 21.4678 37.3221L20.0952 36.9543C20.2883 36.9021 20.4828 36.8498 20.6789 36.797L20.6818 36.7963C21.5905 36.5519 22.5355 36.2978 23.5511 35.9942L23.7544 35.9335L28.6533 37.2462C29.2446 37.4046 29.8524 37.0537 30.0108 36.4624C30.1693 35.8711 29.8184 35.2633 29.227 35.1048L27.6562 34.6839C28.6187 34.3318 29.5824 33.9299 30.5171 33.4498L36.4123 35.0295C37.0036 35.1879 37.6114 34.837 37.7698 34.2457C37.9282 33.6544 37.5773 33.0466 36.986 32.8881L33.0816 31.8419C33.5109 31.5122 33.9255 31.1557 34.3215 30.769C34.5618 30.5343 34.7926 30.3058 35.0175 30.0831L35.0176 30.083L35.0176 30.083L35.0176 30.083C35.671 29.4361 36.275 28.838 36.9214 28.2779L36.9364 28.2649H45.4457V47.2807L25.4939 55.5216L5.66042 47.3295C5.58933 46.9323 5.54821 46.587 5.54216 46.2721ZM50.9879 50.9879V16.6265C50.9879 7.44393 43.5439 0 34.3614 0H16.6265C7.44393 0 0 7.44392 0 16.6265V50.9879L25.4939 61.518L50.9879 50.9879ZM37.6868 17.7349C39.5233 17.7349 41.0121 16.2461 41.0121 14.4096C41.0121 12.5731 39.5233 11.0843 37.6868 11.0843C35.8503 11.0843 34.3615 12.5731 34.3615 14.4096C34.3615 16.2461 35.8503 17.7349 37.6868 17.7349Z" fill="#707A7E"/>
<path fill-rule="evenodd" clip-rule="evenodd" d="M37.6868 17.7351C39.5233 17.7351 41.0121 16.2463 41.0121 14.4098C41.0121 12.5733 39.5233 11.0845 37.6868 11.0845C35.8503 11.0845 34.3615 12.5733 34.3615 14.4098C34.3615 16.2463 35.8503 17.7351 37.6868 17.7351ZM10.8891 12.5784L20.5189 19.9423L27.3151 14.8452L36.9006 23.8316H45.9999V28.2653H36.9361L36.9214 28.2781C36.2751 28.8381 35.6712 29.436 35.0179 30.0828L35.0176 30.0832L35.0175 30.0833C34.7926 30.306 34.5618 30.5344 34.3215 30.7691C31.3534 33.6676 27.3442 34.8632 23.9209 35.884L23.5511 35.9943C22.5356 36.298 21.5905 36.5521 20.6819 36.7964L20.6817 36.7964C19.1654 37.2042 17.7503 37.5847 16.2778 38.1226C15.8478 38.2797 15.4291 38.4298 15.0212 38.5761L15.021 38.5761L15.021 38.5761C12.3533 39.5326 10.1527 40.3217 8.33117 41.7872C6.91673 42.9251 6.0159 44.0687 5.66102 45.2986C5.43706 46.0748 5.54146 46.9025 5.85774 48.2726C6.13311 49.4656 5.38926 50.6559 4.19629 50.9313C3.00332 51.2067 1.81299 50.4628 1.53761 49.2699C1.22196 47.9024 0.827897 46.0559 1.40109 44.0694C2.11238 41.6043 3.78727 39.7524 5.5519 38.3326C8.00378 36.36 10.9881 35.3002 13.6003 34.3725C13.9952 34.2322 14.3817 34.095 14.7565 33.958C16.3825 33.3641 18.158 32.8837 19.8184 32.4344L19.8186 32.4344L19.8186 32.4344L19.8189 32.4343L19.8193 32.4342C20.6835 32.2004 21.5165 31.975 22.2811 31.7464C26.0448 30.6211 29.0754 29.6951 31.2238 27.5971C31.4139 27.4113 31.6127 27.2145 31.8183 27.0108L31.8185 27.0106C32.1288 26.7032 32.4549 26.3802 32.7911 26.0563L26.9979 20.6252L23.1792 23.4893C21.5904 24.6808 19.4032 24.6706 17.8257 23.4643L11.2794 18.4583L4.8928 24.8449L1.75768 21.7098L10.8891 12.5784Z" fill="#707A7E"/>
</svg>
